<?xml version="1.0" standalone="no"?><!DOCTYPE svg PUBLIC "-//W3C//DTD SVG 1.1//EN" "http://www.w3.org/Graphics/SVG/1.1/DTD/svg11.dtd"><svg xmlns:xlink="http://www.w3.org/1999/xlink" version="1.1" class="highcharts-root" style="font-family:&quot;Lucida Grande&quot;, &quot;Lucida Sans Unicode&quot;, Arial, Helvetica, sans-serif;font-size:12px;" xmlns="http://www.w3.org/2000/svg" width="600" height="400" viewBox="0 0 600 400" aria-hidden="false" aria-label="Interactive chart"><desc aria-hidden="true">Created with Highcharts 8.2.2</desc><defs aria-hidden="true"><clipPath id="highcharts-7625ybt-26-"><rect x="0" y="0" width="419" height="292" fill="none"></rect></clipPath></defs><rect fill="#ffffff" class="highcharts-background" x="0" y="0" width="600" height="400" rx="0" ry="0" aria-hidden="true"></rect><rect fill="none" class="highcharts-plot-background" x="67" y="71" width="419" height="292" aria-hidden="true"></rect><g class="highcharts-grid highcharts-xaxis-grid" data-z-index="1" aria-hidden="true"><path fill="none" data-z-index="1" class="highcharts-grid-line" d="M 70.5 71 L 70.5 363" opacity="1"></path><path fill="none" data-z-index="1" class="highcharts-grid-line" d="M 152.5 71 L 152.5 363" opacity="1"></path><path fill="none" data-z-index="1" class="highcharts-grid-line" d="M 234.5 71 L 234.5 363" opacity="1"></path><path fill="none" data-z-index="1" class="highcharts-grid-line" d="M 317.5 71 L 317.5 363" opacity="1"></path><path fill="none" data-z-index="1" class="highcharts-grid-line" d="M 399.5 71 L 399.5 363" opacity="1"></path><path fill="none" data-z-index="1" class="highcharts-grid-line" d="M 481.5 71 L 481.5 363" opacity="1"></path></g><g class="highcharts-grid highcharts-yaxis-grid" data-z-index="1" aria-hidden="true"><path fill="none" stroke="#e6e6e6" stroke-width="1" data-z-index="1" class="highcharts-grid-line" d="M 67 363.5 L 486 363.5" opacity="1"></path><path fill="none" stroke="#e6e6e6" stroke-width="1" data-z-index="1" class="highcharts-grid-line" d="M 67 290.5 L 486 290.5" opacity="1"></path><path fill="none" stroke="#e6e6e6" stroke-width="1" data-z-index="1" class="highcharts-grid-line" d="M 67 217.5 L 486 217.5" opacity="1"></path><path fill="none" stroke="#e6e6e6" stroke-width="1" data-z-index="1" class="highcharts-grid-line" d="M 67 144.5 L 486 144.5" opacity="1"></path><path fill="none" stroke="#e6e6e6" stroke-width="1" data-z-index="1" class="highcharts-grid-line" d="M 67 70.5 L 486 70.5" opacity="1"></path></g><rect fill="none" class="highcharts-plot-border" data-z-index="1" x="67" y="71" width="419" height="292" aria-hidden="true"></rect><g class="highcharts-axis highcharts-xaxis" data-z-index="2" aria-hidden="true"><path fill="none" class="highcharts-tick" stroke="#ccd6eb" stroke-width="1" d="M 70.5 363 L 70.5 373" opacity="1"></path><path fill="none" class="highcharts-tick" stroke="#ccd6eb" stroke-width="1" d="M 152.5 363 L 152.5 373" opacity="1"></path><path fill="none" class="highcharts-tick" stroke="#ccd6eb" stroke-width="1" d="M 234.5 363 L 234.5 373" opacity="1"></path><path fill="none" class="highcharts-tick" stroke="#ccd6eb" stroke-width="1" d="M 317.5 363 L 317.5 373" opacity="1"></path><path fill="none" class="highcharts-tick" stroke="#ccd6eb" stroke-width="1" d="M 399.5 363 L 399.5 373" opacity="1"></path><path fill="none" class="highcharts-tick" stroke="#ccd6eb" stroke-width="1" d="M 481.5 363 L 481.5 373" opacity="1"></path><path fill="none" class="highcharts-axis-line" stroke="#ccd6eb" stroke-width="1" data-z-index="7" d="M 67 363.5 L 486 363.5"></path></g><g class="highcharts-axis highcharts-yaxis" data-z-index="2" aria-hidden="true"><text x="26.03125" data-z-index="7" text-anchor="middle" transform="translate(0,0) rotate(270 26.03125 217)" class="highcharts-axis-title" style="color:#666666;fill:#666666;" y="217"><tspan>Number of Arrivals (in millions)</tspan></text><path fill="none" class="highcharts-axis-line" data-z-index="7" d="M 67 71 L 67 363"></path></g><g class="highcharts-series-group" data-z-index="3" aria-hidden="false"><g class="highcharts-series highcharts-series-0 highcharts-line-series highcharts-color-0" data-z-index="0.1" opacity="1" transform="translate(67,71) scale(1 1)" clip-path="url(#highcharts-7625ybt-26-)" aria-hidden="true"><path fill="none" d="M 4.1078431372512 114.60999999999999 L 86.264705882351 106.945 L 168.42156862745 100.74000000000001 L 250.57843137255 79.20500000000001 L 332.73529411765 67.16 L 414.89215686275 56.57500000000002" class="highcharts-graph" data-z-index="1" stroke="#7cb5ec" stroke-width="2" stroke-linejoin="round" stroke-linecap="round"></path></g><g class="highcharts-markers highcharts-series-0 highcharts-line-series highcharts-color-0" data-z-index="0.1" opacity="1" transform="translate(67,71) scale(1 1)" clip-path="none" aria-hidden="false" role="region" tabindex="-1" aria-label="Italy, line 1 of 3 with 6 data points." style="outline: 0px;"><path fill="#7cb5ec" d="M 4 119 A 4 4 0 1 1 4.0039999993333355 118.99999800000016 Z" opacity="1" class="highcharts-point highcharts-color-0" tabindex="-1" role="img" aria-label="1. x, 2014, 48.6. Italy." style="outline: 0px;"></path><path fill="#7cb5ec" d="M 86 111 A 4 4 0 1 1 86.00399999933333 110.99999800000016 Z" opacity="1" class="highcharts-point highcharts-color-0" tabindex="-1" role="img" aria-label="2. x, 2015, 50.7. Italy." style="outline: 0px;"></path><path fill="#7cb5ec" d="M 168 105 A 4 4 0 1 1 168.00399999933333 104.99999800000016 Z" opacity="1" class="highcharts-point highcharts-color-0" tabindex="-1" role="img" aria-label="3. x, 2016, 52.4. Italy." style="outline: 0px;"></path><path fill="#7cb5ec" d="M 250 83 A 4 4 0 1 1 250.00399999933333 82.99999800000016 Z" opacity="1" class="highcharts-point highcharts-color-0" tabindex="-1" role="img" aria-label="4. x, 2017, 58.3. Italy." style="outline: 0px;"></path><path fill="#7cb5ec" d="M 332 71 A 4 4 0 1 1 332.00399999933336 70.99999800000016 Z" opacity="1" class="highcharts-point highcharts-color-0" tabindex="-1" role="img" aria-label="5. x, 2018, 61.6. Italy." style="outline: 0px;"></path><path fill="#7cb5ec" d="M 414 61 A 4 4 0 1 1 414.00399999933336 60.99999800000017 Z" opacity="1" class="highcharts-point highcharts-color-0" tabindex="-1" role="img" aria-label="6. x, 2019, 64.5. Italy." style="outline: 0px;"></path></g><g class="highcharts-series highcharts-series-1 highcharts-line-series highcharts-color-1" data-z-index="0.1" opacity="1" transform="translate(67,71) scale(1 1)" clip-path="url(#highcharts-7625ybt-26-)" aria-hidden="true"><path fill="none" d="M 4.1078431372512 282.145 L 86.264705882351 282.51 L 168.42156862745 281.78 L 250.57843137255 280.32 L 332.73529411765 280.32 L 414.89215686275 279.955" class="highcharts-graph" data-z-index="1" stroke="#434348" stroke-width="2" stroke-linejoin="round" stroke-linecap="round"></path></g><g class="highcharts-markers highcharts-series-1 highcharts-line-series highcharts-color-1" data-z-index="0.1" opacity="1" transform="translate(67,71) scale(1 1)" clip-path="none" aria-hidden="false" role="region" tabindex="-1" aria-label="Finland, line 2 of 3 with 6 data points." style="outline: 0px;"><path fill="#434348" d="M 4 278 L 8 282 L 4 286 L 0 282 Z" opacity="1" class="highcharts-point highcharts-color-1" tabindex="-1" role="img" aria-label="1. x, 2014, 2.7. Finland." style="outline: 0px;"></path><path fill="#434348" d="M 86 279 L 90 283 L 86 287 L 82 283 Z" opacity="1" class="highcharts-point highcharts-color-1" tabindex="-1" role="img" aria-label="2. x, 2015, 2.6. Finland." style="outline: 0px;"></path><path fill="#434348" d="M 168 278 L 172 282 L 168 286 L 164 282 Z" opacity="1" class="highcharts-point highcharts-color-1" tabindex="-1" role="img" aria-label="3. x, 2016, 2.8. Finland." style="outline: 0px;"></path><path fill="#434348" d="M 250 276 L 254 280 L 250 284 L 246 280 Z" opacity="1" class="highcharts-point highcharts-color-1" tabindex="-1" role="img" aria-label="4. x, 2017, 3.2. Finland." style="outline: 0px;"></path><path fill="#434348" d="M 332 276 L 336 280 L 332 284 L 328 280 Z" opacity="1" class="highcharts-point highcharts-color-1" tabindex="-1" role="img" aria-label="5. x, 2018, 3.2. Finland." style="outline: 0px;"></path><path fill="#434348" d="M 414 276 L 418 280 L 414 284 L 410 280 Z" opacity="1" class="highcharts-point highcharts-color-1" tabindex="-1" role="img" aria-label="6. x, 2019, 3.3. Finland." style="outline: 0px;"></path></g><g class="highcharts-series highcharts-series-2 highcharts-line-series highcharts-color-2" data-z-index="0.1" opacity="1" transform="translate(67,71) scale(1 1)" clip-path="url(#highcharts-7625ybt-26-)" aria-hidden="true"><path fill="none" d="M 4.1078431372512 171.55 L 86.264705882351 164.25 L 168.42156862745 162.06 L 250.57843137255 155.125 L 332.73529411765 150.01500000000001 L 414.89215686275 147.46" class="highcharts-graph" data-z-index="1" stroke="#90ed7d" stroke-width="2" stroke-linejoin="round" stroke-linecap="round"></path></g><g class="highcharts-markers highcharts-series-2 highcharts-line-series highcharts-color-2" data-z-index="0.1" opacity="1" transform="translate(67,71) scale(1 1)" clip-path="none" aria-hidden="false" role="region" tabindex="-1" aria-label="Germany, line 3 of 3 with 6 data points." style="outline: 0px;"><path fill="#90ed7d" d="M 0 168 L 8 168 L 8 176 L 0 176 Z" opacity="1" class="highcharts-point highcharts-color-2" tabindex="-1" role="img" aria-label="1. x, 2014, 33. Germany." style="outline: 0px;"></path><path fill="#90ed7d" d="M 82 160 L 90 160 L 90 168 L 82 168 Z" opacity="1" class="highcharts-point highcharts-color-2" tabindex="-1" role="img" aria-label="2. x, 2015, 35. Germany." style="outline: 0px;"></path><path fill="#90ed7d" d="M 164 158 L 172 158 L 172 166 L 164 166 Z" opacity="1" class="highcharts-point highcharts-color-2" tabindex="-1" role="img" aria-label="3. x, 2016, 35.6. Germany." style="outline: 0px;"></path><path fill="#90ed7d" d="M 246 151 L 254 151 L 254 159 L 246 159 Z" opacity="1" class="highcharts-point highcharts-color-2" tabindex="-1" role="img" aria-label="4. x, 2017, 37.5. Germany." style="outline: 0px;"></path><path fill="#90ed7d" d="M 328 146 L 336 146 L 336 154 L 328 154 Z" opacity="1" class="highcharts-point highcharts-color-2" tabindex="-1" role="img" aria-label="5. x, 2018, 38.9. Germany." style="outline: 0px;"></path><path fill="#90ed7d" d="M 410 143 L 418 143 L 418 151 L 410 151 Z" opacity="1" class="highcharts-point highcharts-color-2" tabindex="-1" role="img" aria-label="6. x, 2019, 39.6. Germany." style="outline: 0px;"></path></g></g><g class="highcharts-label highcharts-series-label highcharts-series-label-0 highcharts-color-0" opacity="1" data-z-index="3" transform="translate(452,107)" aria-hidden="true"><path fill="none" class="highcharts-label-box" d="M 0 0" stroke="#7cb5ec" stroke-width="1"></path><text x="0" data-z-index="1" style="color:#7cb5ec;font-weight:bold;fill:#7cb5ec;" y="12">Italy</text></g><g class="highcharts-label highcharts-series-label highcharts-series-label-1 highcharts-color-1" opacity="1" data-z-index="3" transform="translate(430,330)" aria-hidden="true"><path fill="none" class="highcharts-label-box" d="M 0 0" stroke="#434348" stroke-width="1"></path><text x="0" data-z-index="1" style="color:#434348;font-weight:bold;fill:#434348;" y="12">Finland</text></g><g class="highcharts-label highcharts-series-label highcharts-series-label-2 highcharts-color-2" opacity="1" data-z-index="3" transform="translate(424,221)" aria-hidden="true"><path fill="none" class="highcharts-label-box" d="M 0 0" stroke="#90ed7d" stroke-width="1"></path><text x="0" data-z-index="1" style="color:#90ed7d;font-weight:bold;fill:#90ed7d;" y="12">Germany</text></g><text x="300" text-anchor="middle" class="highcharts-title" data-z-index="4" style="color:#333333;font-size:18px;fill:#333333;" y="24" aria-hidden="true"><tspan>Tourism industry inbound by countries, 2014-2019</tspan></text><text x="300" text-anchor="middle" class="highcharts-subtitle" data-z-index="4" style="color:#666666;fill:#666666;" y="52" aria-hidden="true"><tspan>Source: untwo.org</tspan></text><text x="10" text-anchor="start" class="highcharts-caption" data-z-index="4" style="color:#666666;fill:#666666;" y="397" aria-hidden="true"></text><g class="highcharts-legend" data-z-index="7" transform="translate(498,165)" aria-hidden="true"><rect fill="none" class="highcharts-legend-box" rx="0" ry="0" x="0" y="0" width="92" height="65" visibility="visible"></rect><g data-z-index="1"><g><g class="highcharts-legend-item highcharts-line-series highcharts-color-0 highcharts-series-0" data-z-index="1" transform="translate(8,3)"><path fill="none" d="M 0 11 L 16 11" class="highcharts-graph" stroke="#7cb5ec" stroke-width="2"></path><path fill="#7cb5ec" d="M 8 15 A 4 4 0 1 1 8.003999999333336 14.999998000000167 Z" class="highcharts-point" opacity="1"></path><text x="21" style="color:#333333;cursor:pointer;font-size:12px;font-weight:bold;fill:#333333;" text-anchor="start" data-z-index="2" y="15"><tspan>Italy</tspan></text></g><g class="highcharts-legend-item highcharts-line-series highcharts-color-1 highcharts-series-1" data-z-index="1" transform="translate(8,21)"><path fill="none" d="M 0 11 L 16 11" class="highcharts-graph" stroke="#434348" stroke-width="2"></path><path fill="#434348" d="M 8 7 L 12 11 L 8 15 L 4 11 Z" class="highcharts-point" opacity="1"></path><text x="21" y="15" style="color:#333333;cursor:pointer;font-size:12px;font-weight:bold;fill:#333333;" text-anchor="start" data-z-index="2"><tspan>Finland</tspan></text></g><g class="highcharts-legend-item highcharts-line-series highcharts-color-2 highcharts-series-2" data-z-index="1" transform="translate(8,39)"><path fill="none" d="M 0 11 L 16 11" class="highcharts-graph" stroke="#90ed7d" stroke-width="2"></path><path fill="#90ed7d" d="M 4 7 L 12 7 L 12 15 L 4 15 Z" class="highcharts-point" opacity="1"></path><text x="21" y="15" style="color:#333333;cursor:pointer;font-size:12px;font-weight:bold;fill:#333333;" text-anchor="start" data-z-index="2"><tspan>Germany</tspan></text></g></g></g></g><g class="highcharts-axis-labels highcharts-xaxis-labels" data-z-index="7" aria-hidden="true"><text x="71.107843137251" style="color:#666666;cursor:default;font-size:11px;fill:#666666;" text-anchor="middle" transform="translate(0,0)" y="382" opacity="1">2014</text><text x="153.26470588235" style="color:#666666;cursor:default;font-size:11px;fill:#666666;" text-anchor="middle" transform="translate(0,0)" y="382" opacity="1">2015</text><text x="235.42156862745" style="color:#666666;cursor:default;font-size:11px;fill:#666666;" text-anchor="middle" transform="translate(0,0)" y="382" opacity="1">2016</text><text x="317.57843137255" style="color:#666666;cursor:default;font-size:11px;fill:#666666;" text-anchor="middle" transform="translate(0,0)" y="382" opacity="1">2017</text><text x="399.73529411765" style="color:#666666;cursor:default;font-size:11px;fill:#666666;" text-anchor="middle" transform="translate(0,0)" y="382" opacity="1">2018</text><text x="481.89215686275" style="color:#666666;cursor:default;font-size:11px;fill:#666666;" text-anchor="middle" transform="translate(0,0)" y="382" opacity="1">2019</text></g><g class="highcharts-axis-labels highcharts-yaxis-labels" data-z-index="7" aria-hidden="true"><text x="52" style="color:#666666;cursor:default;font-size:11px;fill:#666666;" text-anchor="end" transform="translate(0,0)" y="367" opacity="1">0</text><text x="52" style="color:#666666;cursor:default;font-size:11px;fill:#666666;" text-anchor="end" transform="translate(0,0)" y="294" opacity="1">20</text><text x="52" style="color:#666666;cursor:default;font-size:11px;fill:#666666;" text-anchor="end" transform="translate(0,0)" y="221" opacity="1">40</text><text x="52" style="color:#666666;cursor:default;font-size:11px;fill:#666666;" text-anchor="end" transform="translate(0,0)" y="148" opacity="1">60</text><text x="52" style="color:#666666;cursor:default;font-size:11px;fill:#666666;" text-anchor="end" transform="translate(0,0)" y="75" opacity="1">80</text></g><text x="590" class="highcharts-credits" text-anchor="end" data-z-index="8" style="cursor:pointer;color:#999999;font-size:9px;fill:#999999;" y="395" aria-label="Chart credits: Highcharts.com" aria-hidden="false">Highcharts.com</text></svg>